<mxfile host="app.diagrams.net" modified="2023-07-20T11:34:47.523Z" agent="Mozilla/5.0 (Windows NT 10.0; Win64; x64; rv:109.0) Gecko/20100101 Firefox/115.0" etag="1zr1ivSrTtXIfcD8DjG3" version="21.5.2" type="github">
  <diagram name="Page-1" id="74e2e168-ea6b-b213-b513-2b3c1d86103e">
    <mxGraphModel dx="794" dy="466" grid="1" gridSize="10" guides="1" tooltips="1" connect="1" arrows="1" fold="1" page="1" pageScale="1" pageWidth="1100" pageHeight="850" background="none" math="0" shadow="0">
      <root>
        <mxCell id="0" />
        <mxCell id="1" parent="0" />
        <mxCell id="77e6c97f196da883-1" value="&lt;font style=&quot;font-size: 14px;&quot;&gt;状態&lt;/font&gt;" style="swimlane;html=1;childLayout=stackLayout;startSize=20;rounded=0;shadow=0;labelBackgroundColor=none;strokeWidth=1;fontFamily=Verdana;fontSize=8;align=center;" parent="1" vertex="1">
          <mxGeometry x="70" y="20" width="640" height="660" as="geometry">
            <mxRectangle x="70" y="40" width="60" height="20" as="alternateBounds" />
          </mxGeometry>
        </mxCell>
        <mxCell id="77e6c97f196da883-2" value="スタンバイ" style="swimlane;html=1;startSize=20;" parent="77e6c97f196da883-1" vertex="1">
          <mxGeometry y="20" width="160" height="640" as="geometry" />
        </mxCell>
        <mxCell id="psSUY0ROBK7VlEEyabbF-4" style="edgeStyle=orthogonalEdgeStyle;rounded=0;orthogonalLoop=1;jettySize=auto;html=1;exitX=0.5;exitY=1;exitDx=0;exitDy=0;exitPerimeter=0;entryX=0.5;entryY=0;entryDx=0;entryDy=0;entryPerimeter=0;" edge="1" parent="77e6c97f196da883-2" source="psSUY0ROBK7VlEEyabbF-1" target="psSUY0ROBK7VlEEyabbF-2">
          <mxGeometry relative="1" as="geometry" />
        </mxCell>
        <mxCell id="psSUY0ROBK7VlEEyabbF-1" value="スタート" style="strokeWidth=2;html=1;shape=mxgraph.flowchart.terminator;whiteSpace=wrap;" vertex="1" parent="77e6c97f196da883-2">
          <mxGeometry x="30" y="30" width="100" height="30" as="geometry" />
        </mxCell>
        <mxCell id="psSUY0ROBK7VlEEyabbF-5" style="edgeStyle=orthogonalEdgeStyle;rounded=0;orthogonalLoop=1;jettySize=auto;html=1;exitX=0.5;exitY=1;exitDx=0;exitDy=0;exitPerimeter=0;entryX=0.5;entryY=0;entryDx=0;entryDy=0;entryPerimeter=0;" edge="1" parent="77e6c97f196da883-2" source="psSUY0ROBK7VlEEyabbF-2" target="psSUY0ROBK7VlEEyabbF-3">
          <mxGeometry relative="1" as="geometry" />
        </mxCell>
        <mxCell id="psSUY0ROBK7VlEEyabbF-6" style="edgeStyle=orthogonalEdgeStyle;rounded=0;orthogonalLoop=1;jettySize=auto;html=1;exitX=1;exitY=0.5;exitDx=0;exitDy=0;exitPerimeter=0;" edge="1" parent="77e6c97f196da883-2" source="psSUY0ROBK7VlEEyabbF-2">
          <mxGeometry relative="1" as="geometry">
            <mxPoint x="80" y="80" as="targetPoint" />
            <Array as="points">
              <mxPoint x="150" y="125" />
              <mxPoint x="150" y="80" />
            </Array>
          </mxGeometry>
        </mxCell>
        <mxCell id="psSUY0ROBK7VlEEyabbF-2" value="フライトピン検知" style="strokeWidth=2;html=1;shape=mxgraph.flowchart.decision;whiteSpace=wrap;" vertex="1" parent="77e6c97f196da883-2">
          <mxGeometry x="15" y="100" width="130" height="50" as="geometry" />
        </mxCell>
        <mxCell id="psSUY0ROBK7VlEEyabbF-7" style="edgeStyle=orthogonalEdgeStyle;rounded=0;orthogonalLoop=1;jettySize=auto;html=1;exitX=1;exitY=0.5;exitDx=0;exitDy=0;exitPerimeter=0;" edge="1" parent="77e6c97f196da883-2" source="psSUY0ROBK7VlEEyabbF-3">
          <mxGeometry relative="1" as="geometry">
            <mxPoint x="80" y="180" as="targetPoint" />
            <Array as="points">
              <mxPoint x="150" y="225" />
              <mxPoint x="150" y="180" />
            </Array>
          </mxGeometry>
        </mxCell>
        <mxCell id="psSUY0ROBK7VlEEyabbF-3" value="10秒経過" style="strokeWidth=2;html=1;shape=mxgraph.flowchart.decision;whiteSpace=wrap;" vertex="1" parent="77e6c97f196da883-2">
          <mxGeometry x="15" y="200" width="130" height="50" as="geometry" />
        </mxCell>
        <mxCell id="77e6c97f196da883-3" value="GPS誘導" style="swimlane;html=1;startSize=20;" parent="77e6c97f196da883-1" vertex="1">
          <mxGeometry x="160" y="20" width="160" height="640" as="geometry" />
        </mxCell>
        <mxCell id="psSUY0ROBK7VlEEyabbF-12" style="edgeStyle=orthogonalEdgeStyle;rounded=0;orthogonalLoop=1;jettySize=auto;html=1;exitX=1;exitY=0.5;exitDx=0;exitDy=0;exitPerimeter=0;" edge="1" parent="77e6c97f196da883-3" source="psSUY0ROBK7VlEEyabbF-9">
          <mxGeometry relative="1" as="geometry">
            <mxPoint x="80" y="310" as="targetPoint" />
            <Array as="points">
              <mxPoint x="150" y="355" />
              <mxPoint x="150" y="310" />
            </Array>
          </mxGeometry>
        </mxCell>
        <mxCell id="psSUY0ROBK7VlEEyabbF-9" value="&lt;div&gt;南地点との距離&lt;/div&gt;&lt;div&gt;&amp;lt;10m&lt;/div&gt;" style="strokeWidth=2;html=1;shape=mxgraph.flowchart.decision;whiteSpace=wrap;" vertex="1" parent="77e6c97f196da883-3">
          <mxGeometry x="10" y="325" width="140" height="60" as="geometry" />
        </mxCell>
        <mxCell id="77e6c97f196da883-4" value="カメラ誘導" style="swimlane;html=1;startSize=20;" parent="77e6c97f196da883-1" vertex="1">
          <mxGeometry x="320" y="20" width="160" height="640" as="geometry" />
        </mxCell>
        <mxCell id="psSUY0ROBK7VlEEyabbF-15" style="edgeStyle=orthogonalEdgeStyle;rounded=0;orthogonalLoop=1;jettySize=auto;html=1;exitX=1;exitY=0.5;exitDx=0;exitDy=0;exitPerimeter=0;" edge="1" parent="77e6c97f196da883-4" source="psSUY0ROBK7VlEEyabbF-13">
          <mxGeometry relative="1" as="geometry">
            <mxPoint x="80" y="430" as="targetPoint" />
            <Array as="points">
              <mxPoint x="150" y="480" />
              <mxPoint x="150" y="430" />
            </Array>
          </mxGeometry>
        </mxCell>
        <mxCell id="psSUY0ROBK7VlEEyabbF-13" value="距離センサ&amp;lt;10cm" style="strokeWidth=2;html=1;shape=mxgraph.flowchart.decision;whiteSpace=wrap;" vertex="1" parent="77e6c97f196da883-4">
          <mxGeometry x="15" y="450" width="130" height="60" as="geometry" />
        </mxCell>
        <mxCell id="77e6c97f196da883-5" value="停止" style="swimlane;html=1;startSize=20;" parent="77e6c97f196da883-1" vertex="1">
          <mxGeometry x="480" y="20" width="160" height="640" as="geometry" />
        </mxCell>
        <mxCell id="psSUY0ROBK7VlEEyabbF-17" value="停止" style="strokeWidth=2;html=1;shape=mxgraph.flowchart.terminator;whiteSpace=wrap;" vertex="1" parent="77e6c97f196da883-5">
          <mxGeometry x="30" y="570" width="100" height="40" as="geometry" />
        </mxCell>
        <mxCell id="psSUY0ROBK7VlEEyabbF-10" style="edgeStyle=orthogonalEdgeStyle;rounded=0;orthogonalLoop=1;jettySize=auto;html=1;exitX=0.5;exitY=1;exitDx=0;exitDy=0;exitPerimeter=0;entryX=0.5;entryY=0;entryDx=0;entryDy=0;entryPerimeter=0;" edge="1" parent="77e6c97f196da883-1" source="psSUY0ROBK7VlEEyabbF-3" target="psSUY0ROBK7VlEEyabbF-9">
          <mxGeometry relative="1" as="geometry" />
        </mxCell>
        <mxCell id="psSUY0ROBK7VlEEyabbF-14" style="edgeStyle=orthogonalEdgeStyle;rounded=0;orthogonalLoop=1;jettySize=auto;html=1;exitX=0.5;exitY=1;exitDx=0;exitDy=0;exitPerimeter=0;entryX=0.5;entryY=0;entryDx=0;entryDy=0;entryPerimeter=0;" edge="1" parent="77e6c97f196da883-1" source="psSUY0ROBK7VlEEyabbF-9" target="psSUY0ROBK7VlEEyabbF-13">
          <mxGeometry relative="1" as="geometry" />
        </mxCell>
        <mxCell id="psSUY0ROBK7VlEEyabbF-18" style="edgeStyle=orthogonalEdgeStyle;rounded=0;orthogonalLoop=1;jettySize=auto;html=1;exitX=0.5;exitY=1;exitDx=0;exitDy=0;exitPerimeter=0;entryX=0.5;entryY=0;entryDx=0;entryDy=0;entryPerimeter=0;" edge="1" parent="77e6c97f196da883-1" source="psSUY0ROBK7VlEEyabbF-13" target="psSUY0ROBK7VlEEyabbF-17">
          <mxGeometry relative="1" as="geometry" />
        </mxCell>
      </root>
    </mxGraphModel>
  </diagram>
</mxfile>
